<?xml version="1.0" encoding="UTF-8"?>
<svg xmlns="http://www.w3.org/2000/svg" version="1.1" width="150" height="150" viewBox="0 0 150 150"><rect x="0" y="0" width="150" height="150" fill="#ffffff"/><g transform="scale(4.286)"><g transform="translate(1,1)"><path fill-rule="evenodd" d="M8 0L8 1L9 1L9 2L8 2L8 5L9 5L9 4L11 4L11 5L10 5L10 10L8 10L8 9L9 9L9 8L8 8L8 9L7 9L7 8L6 8L6 9L7 9L7 10L4 10L4 8L0 8L0 11L1 11L1 12L2 12L2 13L1 13L1 16L0 16L0 17L1 17L1 18L2 18L2 19L3 19L3 20L4 20L4 21L3 21L3 23L1 23L1 24L0 24L0 25L1 25L1 24L2 24L2 25L3 25L3 23L4 23L4 25L5 25L5 23L7 23L7 24L6 24L6 25L7 25L7 24L8 24L8 23L9 23L9 22L11 22L11 24L12 24L12 23L13 23L13 25L14 25L14 22L15 22L15 21L16 21L16 20L15 20L15 19L16 19L16 17L15 17L15 16L17 16L17 14L19 14L19 15L18 15L18 16L20 16L20 19L19 19L19 17L18 17L18 19L17 19L17 22L16 22L16 23L18 23L18 24L17 24L17 26L16 26L16 25L15 25L15 26L13 26L13 27L10 27L10 26L11 26L11 25L10 25L10 24L9 24L9 25L8 25L8 26L9 26L9 29L8 29L8 33L9 33L9 31L10 31L10 33L11 33L11 32L13 32L13 31L11 31L11 30L13 30L13 29L14 29L14 30L15 30L15 32L14 32L14 33L15 33L15 32L16 32L16 33L20 33L20 32L21 32L21 33L22 33L22 32L23 32L23 29L25 29L25 30L24 30L24 32L25 32L25 33L26 33L26 32L27 32L27 33L28 33L28 32L30 32L30 33L31 33L31 32L30 32L30 29L31 29L31 31L32 31L32 32L33 32L33 31L32 31L32 29L33 29L33 27L31 27L31 26L30 26L30 24L29 24L29 23L28 23L28 24L26 24L26 23L27 23L27 22L28 22L28 21L26 21L26 20L29 20L29 21L30 21L30 22L31 22L31 24L32 24L32 25L33 25L33 24L32 24L32 23L33 23L33 21L31 21L31 20L30 20L30 18L31 18L31 19L32 19L32 20L33 20L33 19L32 19L32 18L33 18L33 16L31 16L31 14L32 14L32 13L30 13L30 14L28 14L28 15L27 15L27 14L26 14L26 13L24 13L24 15L26 15L26 20L25 20L25 17L24 17L24 16L23 16L23 14L22 14L22 13L23 13L23 12L24 12L24 7L25 7L25 2L24 2L24 0L22 0L22 1L23 1L23 3L24 3L24 7L23 7L23 6L22 6L22 4L21 4L21 2L19 2L19 1L20 1L20 0L17 0L17 1L16 1L16 2L18 2L18 3L17 3L17 5L18 5L18 7L17 7L17 6L16 6L16 7L17 7L17 9L18 9L18 10L16 10L16 11L15 11L15 12L14 12L14 11L13 11L13 6L12 6L12 5L13 5L13 4L14 4L14 2L15 2L15 0L12 0L12 1L11 1L11 0L10 0L10 1L9 1L9 0ZM13 1L13 2L11 2L11 4L12 4L12 3L13 3L13 2L14 2L14 1ZM19 3L19 4L20 4L20 3ZM15 4L15 5L16 5L16 4ZM20 5L20 6L19 6L19 7L18 7L18 8L20 8L20 9L21 9L21 10L23 10L23 8L22 8L22 6L21 6L21 5ZM8 6L8 7L9 7L9 6ZM11 6L11 8L12 8L12 6ZM14 6L14 7L15 7L15 6ZM20 6L20 7L21 7L21 6ZM14 8L14 9L15 9L15 8ZM21 8L21 9L22 9L22 8ZM25 8L25 10L26 10L26 11L27 11L27 13L29 13L29 12L28 12L28 11L31 11L31 12L32 12L32 11L33 11L33 8L32 8L32 9L31 9L31 8L28 8L28 9L26 9L26 8ZM1 9L1 11L2 11L2 12L3 12L3 11L4 11L4 12L5 12L5 13L3 13L3 14L2 14L2 16L1 16L1 17L2 17L2 18L5 18L5 19L4 19L4 20L5 20L5 21L4 21L4 22L5 22L5 21L6 21L6 22L8 22L8 20L7 20L7 19L8 19L8 18L7 18L7 17L6 17L6 16L7 16L7 15L8 15L8 17L9 17L9 16L10 16L10 18L11 18L11 21L12 21L12 22L14 22L14 21L15 21L15 20L14 20L14 19L15 19L15 18L14 18L14 19L12 19L12 18L13 18L13 16L15 16L15 15L16 15L16 14L17 14L17 13L16 13L16 14L14 14L14 13L13 13L13 14L12 14L12 16L11 16L11 15L9 15L9 11L8 11L8 10L7 10L7 11L4 11L4 10L3 10L3 9ZM11 9L11 10L12 10L12 9ZM28 9L28 10L27 10L27 11L28 11L28 10L31 10L31 11L32 11L32 10L31 10L31 9ZM19 10L19 11L17 11L17 12L19 12L19 13L20 13L20 12L21 12L21 13L22 13L22 11L20 11L20 10ZM7 11L7 12L6 12L6 13L7 13L7 12L8 12L8 11ZM11 11L11 13L10 13L10 14L11 14L11 13L12 13L12 12L13 12L13 11ZM6 14L6 15L7 15L7 14ZM20 14L20 16L21 16L21 15L22 15L22 14ZM28 15L28 16L30 16L30 15ZM2 16L2 17L3 17L3 16ZM4 16L4 17L5 17L5 18L6 18L6 19L7 19L7 18L6 18L6 17L5 17L5 16ZM27 17L27 18L28 18L28 17ZM31 17L31 18L32 18L32 17ZM23 18L23 19L21 19L21 20L22 20L22 22L21 22L21 21L20 21L20 22L19 22L19 25L20 25L20 24L21 24L21 25L22 25L22 26L21 26L21 27L22 27L22 26L23 26L23 25L22 25L22 24L23 24L23 21L24 21L24 22L25 22L25 23L26 23L26 22L25 22L25 21L24 21L24 18ZM9 19L9 20L10 20L10 19ZM1 20L1 21L0 21L0 22L1 22L1 21L2 21L2 20ZM6 20L6 21L7 21L7 20ZM18 20L18 21L19 21L19 20ZM20 22L20 23L21 23L21 22ZM25 25L25 28L28 28L28 25ZM15 26L15 29L16 29L16 32L17 32L17 31L18 31L18 32L20 32L20 30L21 30L21 32L22 32L22 30L21 30L21 28L18 28L18 26L17 26L17 28L16 28L16 26ZM26 26L26 27L27 27L27 26ZM29 26L29 29L28 29L28 31L27 31L27 32L28 32L28 31L29 31L29 29L30 29L30 26ZM13 27L13 28L12 28L12 29L13 29L13 28L14 28L14 27ZM23 27L23 28L22 28L22 29L23 29L23 28L24 28L24 27ZM10 28L10 29L9 29L9 30L11 30L11 28ZM17 29L17 30L18 30L18 31L19 31L19 29ZM26 29L26 30L27 30L27 29ZM25 31L25 32L26 32L26 31ZM0 0L0 7L7 7L7 0ZM1 1L1 6L6 6L6 1ZM2 2L2 5L5 5L5 2ZM26 0L26 7L33 7L33 0ZM27 1L27 6L32 6L32 1ZM28 2L28 5L31 5L31 2ZM0 26L0 33L7 33L7 26ZM1 27L1 32L6 32L6 27ZM2 28L2 31L5 31L5 28Z" fill="#000000"/></g></g></svg>
