<?xml version="1.0" encoding="UTF-8"?>
<svg xmlns="http://www.w3.org/2000/svg" version="1.1" width="150" height="150" viewBox="0 0 150 150"><rect x="0" y="0" width="150" height="150" fill="#ffffff"/><g transform="scale(4.286)"><g transform="translate(1,1)"><path fill-rule="evenodd" d="M10 0L10 2L11 2L11 0ZM12 0L12 1L15 1L15 2L14 2L14 3L13 3L13 2L12 2L12 4L15 4L15 3L17 3L17 4L18 4L18 5L21 5L21 4L18 4L18 3L17 3L17 1L20 1L20 0L17 0L17 1L15 1L15 0ZM22 0L22 1L21 1L21 2L20 2L20 3L24 3L24 4L23 4L23 5L22 5L22 7L21 7L21 6L20 6L20 7L21 7L21 8L20 8L20 9L19 9L19 8L17 8L17 5L11 5L11 6L10 6L10 4L11 4L11 3L8 3L8 4L9 4L9 5L8 5L8 7L9 7L9 8L6 8L6 9L5 9L5 8L0 8L0 9L2 9L2 10L3 10L3 9L4 9L4 10L5 10L5 11L9 11L9 10L6 10L6 9L10 9L10 11L11 11L11 9L12 9L12 10L13 10L13 11L12 11L12 13L14 13L14 14L10 14L10 13L11 13L11 12L8 12L8 14L10 14L10 15L11 15L11 17L12 17L12 18L13 18L13 17L14 17L14 18L15 18L15 21L14 21L14 20L13 20L13 19L11 19L11 18L10 18L10 19L11 19L11 20L12 20L12 21L11 21L11 22L10 22L10 20L9 20L9 21L8 21L8 19L9 19L9 18L6 18L6 19L7 19L7 20L5 20L5 18L4 18L4 16L6 16L6 17L10 17L10 16L9 16L9 15L7 15L7 14L5 14L5 15L1 15L1 16L0 16L0 18L1 18L1 19L0 19L0 20L1 20L1 21L0 21L0 25L1 25L1 22L2 22L2 25L3 25L3 22L4 22L4 23L5 23L5 22L6 22L6 23L7 23L7 22L6 22L6 21L8 21L8 23L11 23L11 22L12 22L12 24L11 24L11 25L10 25L10 24L8 24L8 27L11 27L11 28L8 28L8 33L9 33L9 32L10 32L10 31L9 31L9 30L10 30L10 29L11 29L11 30L12 30L12 29L19 29L19 30L18 30L18 32L17 32L17 30L14 30L14 31L16 31L16 32L13 32L13 31L11 31L11 32L12 32L12 33L19 33L19 30L21 30L21 29L19 29L19 27L18 27L18 28L17 28L17 27L16 27L16 26L15 26L15 25L14 25L14 24L17 24L17 25L19 25L19 26L21 26L21 27L20 27L20 28L23 28L23 27L24 27L24 31L23 31L23 30L22 30L22 31L20 31L20 32L22 32L22 33L23 33L23 32L24 32L24 33L25 33L25 32L24 32L24 31L27 31L27 32L28 32L28 33L29 33L29 31L30 31L30 32L31 32L31 33L32 33L32 32L31 32L31 31L32 31L32 30L31 30L31 29L32 29L32 28L33 28L33 27L32 27L32 26L33 26L33 24L32 24L32 26L31 26L31 25L30 25L30 24L31 24L31 23L32 23L32 22L33 22L33 21L32 21L32 20L31 20L31 19L32 19L32 18L33 18L33 17L32 17L32 16L31 16L31 15L32 15L32 14L33 14L33 13L31 13L31 15L30 15L30 13L29 13L29 10L28 10L28 8L27 8L27 9L26 9L26 8L25 8L25 6L24 6L24 8L23 8L23 5L24 5L24 4L25 4L25 3L24 3L24 2L25 2L25 1L24 1L24 0ZM8 1L8 2L9 2L9 1ZM22 1L22 2L24 2L24 1ZM9 6L9 7L10 7L10 6ZM11 6L11 7L12 7L12 9L13 9L13 10L14 10L14 11L13 11L13 12L14 12L14 13L15 13L15 14L14 14L14 15L12 15L12 16L14 16L14 17L15 17L15 18L16 18L16 17L17 17L17 18L19 18L19 19L20 19L20 20L19 20L19 21L22 21L22 23L24 23L24 24L27 24L27 22L25 22L25 21L27 21L27 20L28 20L28 19L26 19L26 18L25 18L25 17L28 17L28 18L29 18L29 17L30 17L30 19L29 19L29 20L30 20L30 21L28 21L28 24L30 24L30 23L29 23L29 22L30 22L30 21L31 21L31 20L30 20L30 19L31 19L31 16L30 16L30 15L29 15L29 13L28 13L28 16L26 16L26 14L25 14L25 13L27 13L27 12L28 12L28 11L27 11L27 10L25 10L25 9L24 9L24 10L23 10L23 9L22 9L22 8L21 8L21 9L20 9L20 10L19 10L19 9L15 9L15 8L16 8L16 6L15 6L15 7L14 7L14 6L13 6L13 7L12 7L12 6ZM18 6L18 7L19 7L19 6ZM10 8L10 9L11 9L11 8ZM13 8L13 9L14 9L14 10L15 10L15 13L16 13L16 14L15 14L15 15L14 15L14 16L15 16L15 17L16 17L16 16L17 16L17 17L19 17L19 18L20 18L20 19L21 19L21 20L22 20L22 21L23 21L23 22L24 22L24 21L23 21L23 20L24 20L24 19L25 19L25 18L24 18L24 17L25 17L25 16L24 16L24 17L23 17L23 15L22 15L22 14L21 14L21 15L20 15L20 17L19 17L19 15L18 15L18 16L17 16L17 13L18 13L18 14L20 14L20 13L21 13L21 12L22 12L22 13L23 13L23 14L24 14L24 13L23 13L23 12L26 12L26 11L25 11L25 10L24 10L24 11L23 11L23 10L22 10L22 11L21 11L21 12L20 12L20 11L19 11L19 10L18 10L18 11L19 11L19 12L20 12L20 13L18 13L18 12L17 12L17 11L16 11L16 10L15 10L15 9L14 9L14 8ZM29 8L29 9L30 9L30 8ZM31 8L31 10L33 10L33 9L32 9L32 8ZM0 11L0 14L2 14L2 13L3 13L3 14L4 14L4 13L3 13L3 11ZM22 11L22 12L23 12L23 11ZM30 11L30 12L31 12L31 11ZM1 12L1 13L2 13L2 12ZM6 12L6 13L7 13L7 12ZM16 12L16 13L17 13L17 12ZM6 15L6 16L7 16L7 15ZM2 16L2 17L1 17L1 18L2 18L2 20L4 20L4 22L5 22L5 20L4 20L4 19L3 19L3 16ZM21 16L21 17L20 17L20 18L23 18L23 19L22 19L22 20L23 20L23 19L24 19L24 18L23 18L23 17L22 17L22 16ZM28 16L28 17L29 17L29 16ZM16 19L16 21L15 21L15 22L14 22L14 21L12 21L12 22L13 22L13 24L12 24L12 25L13 25L13 26L11 26L11 27L13 27L13 28L16 28L16 27L13 27L13 26L14 26L14 25L13 25L13 24L14 24L14 23L15 23L15 22L16 22L16 21L17 21L17 20L18 20L18 19ZM17 22L17 24L19 24L19 25L21 25L21 26L22 26L22 27L23 27L23 26L24 26L24 25L22 25L22 24L21 24L21 23L20 23L20 22ZM19 23L19 24L20 24L20 23ZM4 24L4 25L5 25L5 24ZM6 24L6 25L7 25L7 24ZM25 25L25 28L28 28L28 25ZM29 25L29 28L30 28L30 29L31 29L31 28L30 28L30 27L31 27L31 26L30 26L30 25ZM26 26L26 27L27 27L27 26ZM11 28L11 29L12 29L12 28ZM25 29L25 30L28 30L28 31L29 31L29 30L28 30L28 29ZM30 30L30 31L31 31L31 30ZM0 0L0 7L7 7L7 0ZM1 1L1 6L6 6L6 1ZM2 2L2 5L5 5L5 2ZM26 0L26 7L33 7L33 0ZM27 1L27 6L32 6L32 1ZM28 2L28 5L31 5L31 2ZM0 26L0 33L7 33L7 26ZM1 27L1 32L6 32L6 27ZM2 28L2 31L5 31L5 28Z" fill="#000000"/></g></g></svg>
